<?xml version="1.0" encoding="utf-8"?>
<svg width="24px" height="24px" viewBox="0 0 24 24" version="1.1" xmlns="http://www.w3.org/2000/svg" xmlns:xlink="http://www.w3.org/1999/xlink">
    <g stroke="none" stroke-width="1" fill="none" fill-rule="evenodd">
        <g fill="#fff" fill-rule="nonzero">
            <path d="M11,11 L0,11 L0,0 L11,0 L11,11 Z M2,9 L9,9 L9,2 L2,2 L2,9 Z" id="Shape"></path>
            <path d="M24,11 L13,11 L13,0 L24,0 L24,11 Z M15,9 L22,9 L22,2 L15,2 L15,9 Z" id="Shape"></path>
            <path d="M11,24 L0,24 L0,13 L11,13 L11,24 Z M2,22 L9,22 L9,15 L2,15 L2,22 Z" id="Shape"></path>
            <polygon id="Shape" points="24 20 22 20 22 15 20 15 20 18 14 18 14 13 16 13 16 16 18 16 18 13 24 13"></polygon>
            <polygon id="Shape" points="24 24 14 24 14 20 16 20 16 22 24 22"></polygon>
            <rect id="Rectangle-path" x="4" y="4" width="3" height="3"></rect>
            <rect id="Rectangle-path" x="17" y="4" width="3" height="3"></rect>
            <rect id="Rectangle-path" x="4" y="17" width="3" height="3"></rect>
        </g>
    </g>
</svg>