<svg id="Layer_1" data-name="Layer 1" xmlns="http://www.w3.org/2000/svg" viewBox="0 0 400 400"><defs><style>.cls-1{fill:#fff;}.cls-2{fill:#ebebeb;}</style></defs><title>img_placeholder</title><rect class="cls-1" x="7.5" y="6.5" width="385" height="385"/><path class="cls-2" d="M385,14V384H15V14H385M400-1H0V399H400V-1Z"/><rect class="cls-1" x="125.6" y="124.6" width="148.49" height="148.8"/><path class="cls-2" d="M268.07,130.62V267.38H131.62V130.62H268.07m12.05-12.05H119.57V279.43H280.12V118.57Z"/><line class="cls-1" x1="204.36" y1="279.43" x2="234.96" y2="221.57"/><path class="cls-2" d="M191.56,277.79l35.64-53.3c3.73-5.58,13.63-5.59,17.38,0l35.85,53.3"/><ellipse class="cls-2" cx="227.94" cy="164.01" rx="14.05" ry="14.08"/><path class="cls-2" d="M127,266.16l39.94-62.82c3.68-5.79,13.91-5.79,17.59,0l39.94,62.82c3.39,5.32-1.39,11.66-8.79,11.66H135.78C128.38,277.82,123.6,271.48,127,266.16Z"/></svg>